<?xml version="1.0" standalone="no"?>
<!DOCTYPE svg PUBLIC "-//W3C//DTD SVG 20010904//EN"
 "http://www.w3.org/TR/2001/REC-SVG-20010904/DTD/svg10.dtd">
<svg version="1.0" xmlns="http://www.w3.org/2000/svg"
 width="633.000000pt" height="633.000000pt" viewBox="0 0 633.000000 633.000000"
 preserveAspectRatio="xMidYMid meet">
<metadata>
Created by potrace 1.14, written by Peter Selinger 2001-2017
</metadata>
<g transform="translate(0.000000,633.000000) scale(0.100000,-0.100000)"
fill="#000000" stroke="none">
<path d="M6035 6303 c-417 -87 -680 -158 -992 -264 -927 -317 -1691 -754
-2346 -1343 -65 -58 -128 -108 -140 -110 -12 -3 -96 -7 -187 -10 -738 -25
-1491 -362 -2154 -964 -205 -186 -240 -256 -182 -357 35 -58 47 -66 641 -395
182 -101 360 -200 397 -221 l66 -39 -59 -115 c-61 -120 -71 -162 -48 -222 11
-32 1179 -1207 1221 -1229 56 -30 119 -19 233 41 57 30 108 55 113 55 5 0 137
-228 292 -507 155 -280 293 -523 307 -541 51 -67 147 -91 221 -53 49 25 243
226 368 383 489 608 769 1296 790 1943 3 88 7 174 10 192 3 22 31 61 92 129
138 154 216 248 343 416 530 703 905 1479 1153 2386 77 283 139 573 140 658 1
63 -2 75 -28 108 -33 44 -96 76 -146 75 -19 -1 -66 -8 -105 -16z m-139 -408
c13 -34 -120 -505 -229 -809 l-60 -169 -346 348 c-237 239 -341 350 -331 353
50 18 937 290 948 291 7 0 15 -6 18 -14z m-898 -886 c240 -237 441 -437 445
-445 10 -18 -32 -117 -157 -359 -212 -413 -439 -758 -732 -1110 -135 -162
-488 -517 -654 -657 -346 -291 -840 -622 -1370 -917 l-165 -91 -457 457 c-350
350 -458 464 -458 482 0 57 370 686 593 1006 239 343 452 601 722 871 373 373
745 654 1220 919 173 97 534 274 558 275 11 0 195 -175 455 -431z m-2805 -833
c-10 -13 -70 -88 -134 -167 -209 -259 -432 -580 -634 -914 -53 -88 -101 -162
-106 -163 -10 -4 -809 438 -809 448 0 3 33 33 72 66 470 391 953 628 1483 730
155 29 151 29 128 0z m1983 -2113 c-95 -519 -334 -1007 -718 -1470 -38 -46
-72 -83 -76 -83 -8 0 -452 793 -452 806 1 5 69 50 152 99 330 196 764 500
1018 713 52 44 97 79 98 77 2 -2 -8 -66 -22 -142z"/>
<path d="M4162 4930 c-271 -42 -491 -243 -558 -510 -22 -87 -22 -245 1 -330
61 -231 252 -422 485 -486 104 -28 273 -24 375 9 331 109 528 442 461 777 -51
248 -221 440 -458 515 -86 27 -223 38 -306 25z m232 -389 c142 -69 211 -235
159 -387 -24 -71 -120 -164 -192 -187 -150 -48 -309 19 -378 161 -36 74 -39
182 -6 253 38 84 113 151 203 180 46 15 164 4 214 -20z"/>
<path d="M811 1884 c-51 -22 -722 -705 -740 -753 -26 -68 9 -150 80 -186 39
-20 72 -19 122 6 54 27 700 668 729 723 28 54 22 135 -13 172 -50 54 -112 67
-178 38z"/>
<path d="M895 1094 c-34 -18 -672 -648 -716 -708 -92 -123 47 -289 184 -220
38 19 712 687 733 726 8 15 14 49 14 77 0 39 -6 56 -26 81 -50 59 -125 77
-189 44z"/>
<path d="M1700 1019 c-27 -8 -110 -86 -378 -357 -189 -191 -352 -360 -362
-377 -26 -40 -26 -110 0 -153 46 -75 134 -93 211 -43 67 44 693 678 718 728
26 52 26 64 2 111 -24 47 -56 76 -100 91 -39 13 -43 13 -91 0z"/>
</g>
</svg>
